<svg xmlns="http://www.w3.org/2000/svg"  viewBox="0 0 64 64" width="256px" height="256px"><linearGradient id="k47ptju451rkMnbg6a9VEa" x1="26" x2="26" y1="28.875" y2="33.002" gradientUnits="userSpaceOnUse" spreadMethod="reflect"><stop offset="0" stop-color="#6dc7ff"/><stop offset="1" stop-color="#e6abff"/></linearGradient><path fill="url(#k47ptju451rkMnbg6a9VEa)" d="M15,29h24v2c0,1.105-0.895,2-2,2H15c-1.105,0-2-0.895-2-2v0C13,29.896,13.895,29,15,29z"/><linearGradient id="k47ptju451rkMnbg6a9VEb" x1="37" x2="37" y1="11.5" y2="29.25" gradientUnits="userSpaceOnUse" spreadMethod="reflect"><stop offset="0" stop-color="#6dc7ff"/><stop offset="1" stop-color="#e6abff"/></linearGradient><path fill="url(#k47ptju451rkMnbg6a9VEb)" d="M39,29V14c0-1.105-0.895-2-2-2h0c-1.105,0-2,0.895-2,2v15H39z"/><linearGradient id="k47ptju451rkMnbg6a9VEc" x1="26" x2="26" y1="5.75" y2="13.379" gradientUnits="userSpaceOnUse" spreadMethod="reflect"><stop offset="0" stop-color="#6dc7ff"/><stop offset="1" stop-color="#e6abff"/></linearGradient><path fill="url(#k47ptju451rkMnbg6a9VEc)" d="M24,10c0-1.103,0.897-2,2-2s2,0.897,2,2h2c0-2.206-1.794-4-4-4s-4,1.794-4,4v3h2V10z"/><linearGradient id="k47ptju451rkMnbg6a9VEd" x1="23" x2="23" y1="14.25" y2="26.054" gradientUnits="userSpaceOnUse" spreadMethod="reflect"><stop offset="0" stop-color="#6dc7ff"/><stop offset="1" stop-color="#e6abff"/></linearGradient><path fill="url(#k47ptju451rkMnbg6a9VEd)" d="M26,19c-0.732,0-1.409,0.212-2,0.556V19c0-2.206-1.794-4-4-4s-4,1.794-4,4h2 c0-1.103,0.897-2,2-2s2,0.897,2,2v4v3h2v-3c0-1.103,0.897-2,2-2s2,0.897,2,2h2C30,20.794,28.206,19,26,19z"/><linearGradient id="k47ptju451rkMnbg6a9VEe" x1="32" x2="32" y1="10.875" y2="58.316" gradientUnits="userSpaceOnUse" spreadMethod="reflect"><stop offset="0" stop-color="#1a6dff"/><stop offset="1" stop-color="#c822ff"/></linearGradient><path fill="url(#k47ptju451rkMnbg6a9VEe)" d="M41,46h2c4.963,0,9-4.037,9-9V18c0-1.654-1.346-3-3-3h-1v-2.01c0-1.098-0.893-1.99-1.989-1.99 h-2.021C42.893,11,42,11.893,42,12.99V15h-2v-1c0-1.654-1.346-3-3-3s-3,1.346-3,3v14H15c-1.654,0-3,1.346-3,3 c0,1.302,0.838,2.402,2,2.816V37c0,4.963,4.037,9,9,9h4c1.654,0,3,1.346,3,3v4c0,1.654-1.346,3-3,3H14v2h38v-2h-9 c-1.654,0-3-1.346-3-3v-6C40,46.448,40.448,46,41,46z M43.989,13L46,12.99V15h-2.003L43.989,13z M36,14c0-0.552,0.448-1,1-1 s1,0.448,1,1v14h-2V14z M15,30h19h4v1c0,0.552-0.448,1-1,1h-2H15c-0.552,0-1-0.448-1-1S14.448,30,15,30z M39.025,56h-8.051 C31.609,55.162,32,54.13,32,53v-4c0-2.757-2.243-5-5-5h-4c-3.859,0-7-3.141-7-7v-3h19h2c1.654,0,3-1.346,3-3v-1v-2V17h9 c0.552,0,1,0.448,1,1v1h-6v2h6v2h-2v2h2v12c0,3.859-3.141,7-7,7h-2c-1.654,0-3,1.346-3,3v6C38,54.13,38.391,55.162,39.025,56z"/></svg>