<svg xmlns="http://www.w3.org/2000/svg"  viewBox="0 0 64 64" width="96px" height="96px"><linearGradient id="SVGID_1_" x1="14" x2="14" y1="42.979" y2="45.043" gradientUnits="userSpaceOnUse"><stop offset="0" stop-color="#6dc7ff"/><stop offset="1" stop-color="#e6abff"/></linearGradient><rect width="8" height="2" x="10" y="43" fill="url(#SVGID_1_)"/><linearGradient id="SVGID_2_" x1="19" x2="19" y1="13.979" y2="21.65" gradientUnits="userSpaceOnUse"><stop offset="0" stop-color="#6dc7ff"/><stop offset="1" stop-color="#e6abff"/></linearGradient><path fill="url(#SVGID_2_)" d="M19,24L19,24c-2.2,0-4-1.8-4-4v-7h8v7C23,22.2,21.2,24,19,24z"/><linearGradient id="SVGID_3_" x1="35" x2="35" y1="13.979" y2="21.65" gradientUnits="userSpaceOnUse"><stop offset="0" stop-color="#6dc7ff"/><stop offset="1" stop-color="#e6abff"/></linearGradient><path fill="url(#SVGID_3_)" d="M35,24L35,24c-2.2,0-4-1.8-4-4v-7h8v7C39,22.2,37.2,24,35,24z"/><linearGradient id="SVGID_4_" x1="45" x2="45" y1="36.021" y2="43.499" gradientUnits="userSpaceOnUse"><stop offset="0" stop-color="#6dc7ff"/><stop offset="1" stop-color="#e6abff"/></linearGradient><circle cx="45" cy="40" r="4" fill="url(#SVGID_4_)"/><linearGradient id="SVGID_5_" x1="31.5" x2="31.5" y1="6.234" y2="57.325" gradientUnits="userSpaceOnUse"><stop offset="0" stop-color="#1a6dff"/><stop offset="1" stop-color="#c822ff"/></linearGradient><path fill="url(#SVGID_5_)" d="M45,28v-3.4c0.5-0.2,1-0.5,1.4-0.9c1-0.9,1.6-2.3,1.6-3.7v-6.4c0-0.6-0.2-1.1-0.5-1.6 l-2.3-3.6C44.3,6.9,42.7,6,41,6H13c-1.7,0-3.3,0.9-4.2,2.3L6.5,12C6.2,12.5,6,13,6,13.6v6.2c0,2.1,1.2,3.9,3,4.7V45H7v2h28.1 c1.5,2.4,3.5,4.4,5.3,6.2c1.8,1.8,3.6,3.6,3.6,4.8h2c0-1.2,1.7-2.9,3.6-4.8C52.9,49.9,57,45.8,57,40C57,33.4,51.6,28,45,28z M43,28.2c-2.8,0.5-5.2,1.9-7,3.9V32c0-1.7-1.3-3-3-3H21c-1.7,0-3,1.3-3,3v9h-7V25c1.2,0,2.4-0.4,3.4-1.3c0.2-0.2,0.5-0.5,0.6-0.7 c0.9,1.2,2.4,2,4,2c1.6,0,3.1-0.8,4-2c0.9,1.2,2.4,2,4,2s3.1-0.8,4-2c0.9,1.2,2.4,2,4,2c1.7,0,3.1-0.8,4-2.1c0.8,1.1,2.1,1.9,3.5,2 c0.2,0,0.3,0,0.5,0c0,0,0,0,0,0V28.2z M34,33H20v-1c0-0.6,0.4-1,1-1h12c0.6,0,1,0.4,1,1V33z M16,14h6v6c0,1.7-1.3,3-3,3s-3-1.3-3-3 V14z M30,14v6c0,1.7-1.3,3-3,3s-3-1.3-3-3v-6H30z M38,14v6c0,1.7-1.3,3-3,3s-3-1.3-3-3v-6H38z M46,20c0,0.8-0.4,1.7-1,2.2 c-0.6,0.6-1.5,0.8-2.3,0.8c-1.5-0.1-2.7-1.5-2.7-3.2V14h6V20z M10.5,9.4C11,8.5,12,8,13,8h28c1,0,2,0.5,2.5,1.4c0,0,0,0,0,0 l1.6,2.6H8.8L10.5,9.4z M8,19.8V14h6v6c0,0.8-0.4,1.7-1,2.2c-0.6,0.6-1.5,0.8-2.3,0.8C9.2,22.8,8,21.5,8,19.8z M11,45v-2h7v2H11z M20,45V35h14.1c-0.7,1.5-1.1,3.2-1.1,5c0,1.8,0.4,3.5,1.1,5H28H20z M48.2,51.8c-1.3,1.3-2.4,2.4-3.2,3.5c-0.8-1.1-1.9-2.2-3.2-3.5 c-3-3-6.8-6.8-6.8-11.8c0-5.5,4.5-10,10-10s10,4.5,10,10C55,45,51.2,48.8,48.2,51.8z"/><linearGradient id="SVGID_6_" x1="45" x2="45" y1="6.234" y2="57.325" gradientUnits="userSpaceOnUse"><stop offset="0" stop-color="#1a6dff"/><stop offset="1" stop-color="#c822ff"/></linearGradient><path fill="url(#SVGID_6_)" d="M45,34c-3.3,0-6,2.7-6,6s2.7,6,6,6s6-2.7,6-6S48.3,34,45,34z M45,44c-2.2,0-4-1.8-4-4 s1.8-4,4-4s4,1.8,4,4S47.2,44,45,44z"/></svg>