<svg xmlns="http://www.w3.org/2000/svg"  viewBox="0 0 64 64" width="96px" height="96px"><linearGradient id="QrXSE94Rtbwrjtf_Qmj2ua" x1="21" x2="21" y1="7.833" y2="12.833" gradientUnits="userSpaceOnUse" spreadMethod="reflect"><stop offset="0" stop-color="#6dc7ff"/><stop offset="1" stop-color="#e6abff"/></linearGradient><path fill="url(#QrXSE94Rtbwrjtf_Qmj2ua)" d="M16 8H26V12H16z"/><linearGradient id="QrXSE94Rtbwrjtf_Qmj2ub" x1="21" x2="21" y1="5.333" y2="58.409" gradientUnits="userSpaceOnUse" spreadMethod="reflect"><stop offset="0" stop-color="#1a6dff"/><stop offset="1" stop-color="#c822ff"/></linearGradient><path fill="url(#QrXSE94Rtbwrjtf_Qmj2ub)" d="M20,37h2c1.103,0,2-0.897,2-2v-6c0-1.103-0.897-2-2-2h-2c-1.103,0-2,0.897-2,2v6 C18,36.103,18.897,37,20,37z M20,35v-2h2v2H20z M22,29v2h-2v-2H22z"/><linearGradient id="QrXSE94Rtbwrjtf_Qmj2uc" x1="21" x2="21" y1="5.333" y2="58.409" gradientUnits="userSpaceOnUse" spreadMethod="reflect"><stop offset="0" stop-color="#1a6dff"/><stop offset="1" stop-color="#c822ff"/></linearGradient><path fill="url(#QrXSE94Rtbwrjtf_Qmj2uc)" d="M30,16v-2.008C30,12.894,29.103,12,28,12V8.992C28,7.343,26.654,6,25,6h-8 c-1.654,0-3,1.343-3,2.992V12c-1.103,0-2,0.894-2,1.992V16c-1.103,0-2,0.897-2,2v2c0,1.103,0.897,2,2,2v23.118 c0,1.432,0.431,2.81,1.245,3.984l5.27,7.604c0.565,0.815,1.494,1.302,2.485,1.302s1.92-0.486,2.485-1.302l5.27-7.604 C29.569,47.928,30,46.55,30,45.118V22c1.103,0,2-0.897,2-2v-2C32,16.897,31.103,16,30,16z M16,8.992C16,8.445,16.448,8,17,8h8 c0.552,0,1,0.445,1,0.992V12H16V8.992z M14,14l14-0.008V16H14V14z M21.841,55.567c-0.387,0.559-1.295,0.559-1.682,0l-1.163-1.677 c1.263-0.544,2.746-0.543,4.007,0L21.841,55.567z M24.153,52.231c-1.952-0.98-4.353-0.98-6.306,0l-2.957-4.267 c-0.307-0.443-0.532-0.927-0.682-1.435c4.562-2.058,9.022-2.058,13.584,0c-0.149,0.507-0.375,0.992-0.682,1.435L24.153,52.231z M28,44.445c-4.652-1.922-9.348-1.922-14,0V22h14V44.445z M30,20H12v-2h18V20z"/><linearGradient id="QrXSE94Rtbwrjtf_Qmj2ud" x1="9" x2="9" y1="5.333" y2="58.409" gradientUnits="userSpaceOnUse" spreadMethod="reflect"><stop offset="0" stop-color="#1a6dff"/><stop offset="1" stop-color="#c822ff"/></linearGradient><path fill="url(#QrXSE94Rtbwrjtf_Qmj2ud)" d="M8 24H10V36H8z"/><linearGradient id="QrXSE94Rtbwrjtf_Qmj2ue" x1="42" x2="42" y1="25.333" y2="59.5" gradientUnits="userSpaceOnUse" spreadMethod="reflect"><stop offset="0" stop-color="#6dc7ff"/><stop offset="1" stop-color="#e6abff"/></linearGradient><path fill="url(#QrXSE94Rtbwrjtf_Qmj2ue)" d="M43,58H28v-2h15c1.654,0,3-1.348,3-3.004C46,51.344,44.654,50,43,50h-5 c-2.206,0-4-1.796-4-4.004C34,43.793,35.794,42,38,42h12c2.206,0,4-1.796,4-4.004C54,35.793,52.206,34,50,34H40 c-2.206,0-4-1.796-4-4.004C36,27.793,37.794,26,40,26h10v2H40c-1.103,0-2,0.896-2,1.998C38,31.102,38.897,32,40,32h10 c3.309,0,6,2.69,6,5.998C56,41.308,53.309,44,50,44H38c-1.103,0-2,0.896-2,1.998C36,47.102,36.897,48,38,48h5 c2.757,0,5,2.242,5,4.998C48,55.756,45.757,58,43,58z"/></svg>